<svg width="16" height="18" viewBox="0 0 16 18" fill="none" xmlns="http://www.w3.org/2000/svg">
<path d="M14.049 6.62813C14.049 6.62813 13.594 12.2709 13.3301 14.6479C13.2044 15.7831 12.5032 16.4484 11.3545 16.4693C9.1686 16.5087 6.98018 16.5112 4.79512 16.4651C3.69002 16.4425 3.00048 15.7689 2.87732 14.6537C2.61173 12.2558 2.1593 6.62813 2.1593 6.62813" stroke="#FF0000" stroke-width="1.5" stroke-linecap="round" stroke-linejoin="round"/>
<path d="M15.2079 3.92319H1" stroke="#FF0000" stroke-width="1.5" stroke-linecap="round" stroke-linejoin="round"/>
<path d="M12.4703 3.92319C11.8126 3.92319 11.2462 3.4582 11.1172 2.8139L10.9136 1.7951C10.7879 1.32508 10.3623 1 9.87718 1H6.33064C5.84553 1 5.41991 1.32508 5.29424 1.7951L5.09065 2.8139C4.96162 3.4582 4.39525 3.92319 3.73755 3.92319" stroke="#FF0000" stroke-width="1.5" stroke-linecap="round" stroke-linejoin="round"/>
</svg>
